<?xml version="1.0" encoding="utf-8"?>
<!-- Uploaded to: SVG Repo, www.svgrepo.com, Generator: SVG Repo Mixer Tools -->
<svg width="800px" height="800px" viewBox="0 0 1024 1024" class="icon"  version="1.1" xmlns="http://www.w3.org/2000/svg"><path d="M993.421 493.538v35c0 13.331-6.04 26.664-18.135 37.137-140.15 121.422-280.351 242.795-420.49 364.219-11.813 10.237-25.813 15.501-42.454 15.501v-35c16.644 0 30.641-5.264 42.454-15.501 140.142-121.424 280.336-242.802 420.49-364.217 12.095-10.475 18.135-23.803 18.135-37.139z" fill="#9FCA33" /><path d="M29.897 528.367v-3.5-1.75-3.5-3.5-1.75-3.5-3.5-1.75-3.5-3.5-1.75-3.5c0 14.707 6.701 29.313 19.037 40.019 138.449 120.064 277.049 239.996 415.562 360.02 13.002 11.26 28.74 16.466 47.852 16.994v35c-19.107-0.528-34.85-5.734-47.852-16.994C325.983 808.382 187.383 688.45 48.934 568.386c-12.336-10.705-19.037-25.312-19.037-40.019z" fill="#9FCA33" /><path d="M510.444 76.601c16.263 0 32.546 5.362 44.945 16.097 139.95 121.188 279.901 242.376 419.819 363.586 24.241 20.995 24.295 53.413 0.079 74.396-140.15 121.42-280.351 242.797-420.489 364.218-11.814 10.238-25.813 15.502-42.452 15.502-19.108-0.528-34.852-5.734-47.854-16.994-138.51-120.024-277.11-239.956-415.559-360.02-19.581-16.987-24.96-43.81-11.895-65.251 3.919-6.438 8.669-11.829 14.465-16.849 138.109-119.552 276.18-239.134 414.263-358.719 12.295-10.64 28.477-15.966 44.678-15.966z" fill="#CBDE6C" /><path d="M342.817 423.318v16.8c-2.69 2.041-4.677 3.509-6.621 5.019-9.797 7.586-19.564 15.208-29.374 22.776-4.325 3.334-8.267 5.002-11.859 5.002-4.617 0-8.661-2.753-12.221-8.27v-16.8c3.56 5.516 7.604 8.27 12.221 8.27 3.592 0 7.533-1.668 11.859-5.003 9.81-7.567 19.577-15.189 29.374-22.776 1.944-1.51 3.931-2.977 6.621-5.018z" fill="#5E934D" /><path d="M342.817 423.318v16.8c-2.69 2.041-4.677 3.509-6.621 5.019-9.797 7.586-19.564 15.208-29.374 22.776a35.47 35.47 0 0 1-2.559 1.806v-16.8a35.692 35.692 0 0 0 2.559-1.806c9.81-7.567 19.577-15.189 29.374-22.776 1.944-1.511 3.931-2.978 6.621-5.019" fill="#5E934D" /><path d="M304.264 452.917v16.8c-1.543 0.984-3.035 1.742-4.475 2.272v-16.8c1.442-0.528 2.932-1.286 4.475-2.272M299.789 455.191v16.8c-1.085 0.398-2.141 0.67-3.17 0.81V456a15.08 15.08 0 0 0 3.17-0.809" fill="#5E934D" /><path d="M296.62 456v16.8c-0.561 0.077-1.113 0.115-1.657 0.115-4.617 0-8.661-2.753-12.221-8.27v-16.8c3.56 5.516 7.604 8.27 12.221 8.27 0.543 0.001 1.097-0.038 1.657-0.115" fill="#5E934D" /><path d="M741.531 448.625v16.8c-2.36 5.723-7.117 8.345-12.228 8.345-3.881 0-7.969-1.512-11.371-4.329-11.521-9.542-23.666-18.518-36.429-28.416v-16.801c12.762 9.9 24.906 18.874 36.429 28.416 3.402 2.818 7.49 4.33 11.371 4.33 5.114 0 9.869-2.624 12.228-8.345z" fill="#5E934D" /><path d="M741.531 448.625v16.8c-0.623 1.512-1.416 2.809-2.338 3.896V452.52c0.923-1.087 1.715-2.383 2.338-3.895" fill="#5E934D" /><path d="M739.195 452.521v16.801c-0.834 0.985-1.776 1.8-2.796 2.454l0.003-16.801a12.438 12.438 0 0 0 2.793-2.454M736.399 454.975v16.801c-0.759 0.481-1.557 0.875-2.389 1.181v-16.8a12.263 12.263 0 0 0 2.389-1.182" fill="#5E934D" /><path d="M734.012 456.158v16.8c-0.893 0.327-1.819 0.554-2.77 0.684v-16.8c0.95-0.132 1.879-0.359 2.77-0.684" fill="#5E934D" /><path d="M731.243 456.841v16.8c-0.638 0.087-1.285 0.13-1.938 0.13-3.881 0-7.969-1.512-11.371-4.329-11.521-9.542-23.666-18.518-36.429-28.416v-16.801c12.762 9.899 24.906 18.874 36.429 28.416 3.402 2.818 7.49 4.33 11.371 4.33 0.653-0.001 1.3-0.045 1.938-0.13" fill="#5E934D" /><path d="M576.635 563.86v16.801c0-13.738-0.004-27.479-0.021-41.219-0.021-13.706-8.213-23.579-22.538-26.93-3.41-0.796-7.067-1.04-10.615-1.057-5.559-0.027-11.119-0.042-16.677-0.055a9724.922 9724.922 0 0 0-31.351-0.006l-14.678 0.024v-16.8a14382.573 14382.573 0 0 1 29.874-0.034c5.384 0 10.77 0.005 16.155 0.015 5.558 0.013 11.118 0.028 16.677 0.056 3.548 0.018 7.205 0.261 10.615 1.057 14.322 3.352 22.519 13.224 22.538 26.929 0.017 13.742 0.021 27.481 0.021 41.219z" fill="#5E934D" /><path d="M576.635 563.86v16.801c0-13.738-0.004-27.479-0.021-41.219-0.021-13.706-8.213-23.579-22.538-26.93-3.41-0.796-7.067-1.04-10.615-1.057-5.559-0.027-11.119-0.042-16.677-0.055a9724.922 9724.922 0 0 0-31.351-0.006l-14.678 0.024v-16.8a14382.573 14382.573 0 0 1 29.874-0.034c5.384 0 10.77 0.005 16.155 0.015 5.558 0.013 11.118 0.028 16.677 0.056 3.548 0.018 7.205 0.261 10.615 1.057 14.322 3.352 22.519 13.224 22.538 26.929 0.017 13.742 0.021 27.481 0.021 41.219" fill="#5E934D" /><path d="M576.635 580.566v6.206-16.8-6.207 16.801z" fill="#5E934D" /><path d="M576.635 563.809V586.775v-16.801-6.165" fill="#5E934D" /><path d="M447.605 586.947v-16.8c0-15.582 0-31.164 0.004-46.747 0.011-17.932 12.429-28.745 33.144-28.782v16.8c-20.714 0.035-33.132 10.851-33.144 28.782-0.004 15.583-0.004 31.165-0.004 46.747z" fill="#5E934D" /><path d="M480.753 494.62v16.8c-2.453 0.004-4.788 0.16-7.001 0.459v-16.8a52.947 52.947 0 0 1 7.001-0.459M473.751 495.079v16.8c-3.016 0.409-5.802 1.088-8.342 2.021v-16.8c2.54-0.933 5.326-1.612 8.342-2.021M465.408 497.1v16.8a30.408 30.408 0 0 0-5.916 2.903v-16.8a30.437 30.437 0 0 1 5.916-2.903M459.492 500.003v16.8c-2.203 1.411-4.122 3.08-5.741 4.997V505a25.38 25.38 0 0 1 5.741-4.997" fill="#5E934D" /><path d="M453.752 505v16.8c-3.587 4.252-5.684 9.707-6.075 16.174v-16.8c0.392-6.468 2.488-11.922 6.075-16.174" fill="#5E934D" /><path d="M447.678 521.175v16.8a36.229 36.229 0 0 0-0.066 2.228c-0.004 15.584-0.004 31.165-0.004 46.747v-16.8c0-15.582 0-31.164 0.004-46.747-0.001-0.757 0.021-1.5 0.066-2.228" fill="#5E934D" /><path d="M473.199 590.293v-16.801c0-16.729 0.012-33.456 0.022-50.188 0-5.665 0.998-6.495 7.56-6.495 10.378-0.004 20.755-0.009 31.133-0.009 10.38 0 20.76 0.005 31.142 0.009 7.237 0 8.196 0.82 8.196 7.157v16.8c0-6.337-0.959-7.156-8.196-7.156-10.382-0.004-20.762-0.008-31.142-0.008-10.378 0-20.755 0.004-31.133 0.008-6.562 0-7.56 0.83-7.56 6.494-0.01 16.731-0.022 33.459-0.022 50.189z" fill="#5E934D" /><path d="M551.252 523.969v16.8c0-6.337-0.96-7.156-8.196-7.156-10.383-0.004-20.762-0.008-31.142-0.008-10.378 0-20.755 0.004-31.132 0.008-1.479 0-2.673 0.041-3.638 0.173v-16.8c0.965-0.133 2.159-0.174 3.638-0.174a80762.252 80762.252 0 0 1 62.274 0c7.238-0.001 8.196 0.819 8.196 7.157" fill="#5E934D" /><path d="M477.145 516.982v16.8c-0.598 0.08-1.106 0.193-1.541 0.354v-16.801a7.383 7.383 0 0 1 1.541-0.353M475.604 517.335v16.801c-0.274 0.099-0.52 0.217-0.736 0.356v-16.8c0.216-0.138 0.461-0.256 0.736-0.357M474.867 517.692v16.8a2.777 2.777 0 0 0-0.636 0.553v-16.801a2.87 2.87 0 0 1 0.636-0.552" fill="#5E934D" /><path d="M474.233 518.244v16.801c-0.611 0.722-0.875 1.789-0.968 3.357v-16.8c0.093-1.568 0.357-2.637 0.968-3.358M473.265 521.603v16.801a30.422 30.422 0 0 0-0.042 1.703c-0.011 16.729-0.022 33.458-0.022 50.188v-16.801c0-16.729 0.012-33.456 0.022-50.188 0-0.625 0.012-1.191 0.042-1.703" fill="#5E934D" /><path d="M606.814 623.764v16.802l-11.469 0.002c-3.82 0-7.646-0.002-11.464-0.012-5.997-0.01-7.248-1.151-7.248-6.45v-16.802c0 5.301 1.251 6.444 7.248 6.452 3.819 0.008 7.644 0.011 11.464 0.011 3.826 0 7.647-0.003 11.469-0.003z" fill="#5E934D" /><path d="M606.814 623.764v16.802l-11.469 0.002c-3.82 0-7.646-0.002-11.464-0.012-5.997-0.01-7.248-1.151-7.248-6.45v-16.802c0 5.301 1.251 6.444 7.248 6.452 3.819 0.008 7.644 0.011 11.464 0.011 3.826 0 7.647-0.003 11.469-0.003" fill="#5E934D" /><path d="M655.854 608.566v16.8c0 3.656-1.039 7.393-2.198 10.945-0.937 2.903-3.445 4.249-7.131 4.31v-16.8c3.686-0.061 6.194-1.405 7.131-4.311 1.157-3.55 2.198-7.286 2.198-10.944z" fill="#5E934D" /><path d="M655.854 608.566v16.8c0 0.409-0.015 0.818-0.038 1.229v-16.8c0.026-0.409 0.038-0.819 0.038-1.229M655.814 609.797v16.8c-0.195 3.261-1.13 6.563-2.16 9.717a5.874 5.874 0 0 1-1.096 2.018v-16.8a5.832 5.832 0 0 0 1.096-2.02c1.032-3.154 1.965-6.454 2.16-9.715" fill="#5E934D" /><path d="M652.56 621.531v16.8a5.43 5.43 0 0 1-1.242 1.082v-16.8c0.47-0.3 0.884-0.661 1.242-1.082M651.316 622.614v16.8c-0.391 0.25-0.817 0.46-1.282 0.629v-16.8c0.465-0.17 0.893-0.38 1.282-0.629M650.034 623.243v16.8a9.106 9.106 0 0 1-1.927 0.465v-16.8a9.168 9.168 0 0 0 1.927-0.465M648.107 623.708v16.8c-0.502 0.068-1.028 0.106-1.584 0.115v-16.8a13.402 13.402 0 0 0 1.584-0.115" fill="#5E934D" /><path d="M646.523 623.823v16.8a5158.23 5158.23 0 0 0-16.119-0.051c-4.197-0.009-8.394-0.012-12.59-0.012-4.153 0-7.575 0.001-11 0.003v-16.801l11-0.002a5871.249 5871.249 0 0 1 28.709 0.063z" fill="#5E934D" /><path d="M646.523 623.823v16.8a5158.23 5158.23 0 0 0-16.119-0.051c-4.197-0.009-8.394-0.012-12.59-0.012-4.153 0-7.575 0.001-11 0.003v-16.801l11-0.002a5871.249 5871.249 0 0 1 28.709 0.063" fill="#5E934D" /><path d="M447.6 616.894v16.802c0 6.059-1.099 7.036-7.964 7.036a63674.196 63674.196 0 0 1-61.821 0c-7.438-0.01-9.627-1.868-9.627-8.327v-16.8c0 6.457 2.188 8.316 9.627 8.326 10.308 0.004 20.611 0.008 30.914 0.008 10.304 0 20.606-0.004 30.907-0.008 6.866 0 7.964-0.978 7.964-7.037z" fill="#5E934D" /><path d="M447.6 616.894v16.802c0 0.664-0.014 1.266-0.045 1.812v-16.801c0.031-0.547 0.045-1.15 0.045-1.813M447.555 618.705v16.801c-0.103 1.714-0.394 2.882-1.061 3.669v-16.8c0.667-0.789 0.958-1.956 1.061-3.67M446.494 622.375v16.8a3.01 3.01 0 0 1-0.696 0.607v-16.8c0.268-0.172 0.499-0.374 0.696-0.607M445.798 622.979v16.801c-0.235 0.148-0.5 0.277-0.798 0.388v-16.801c0.298-0.107 0.563-0.236 0.798-0.388M445 623.369v16.8c-0.469 0.171-1.02 0.295-1.663 0.382V623.75c0.643-0.086 1.194-0.21 1.663-0.381M443.337 623.75v16.801c-0.995 0.134-2.212 0.181-3.702 0.181a63672.96 63672.96 0 0 1-61.822 0c-7.438-0.01-9.625-1.868-9.625-8.327v-16.8c0 6.457 2.188 8.316 9.625 8.326 10.308 0.004 20.611 0.008 30.916 0.008 10.304 0 20.605-0.004 30.906-0.008 1.491 0 2.707-0.046 3.702-0.181" fill="#5E934D" /><path d="M735.888 436.883c2.245 1.746 3.779 4.189 5.645 6.313v5.429c-2.36 5.721-7.117 8.346-12.228 8.346-3.881 0-7.969-1.512-11.371-4.33-11.521-9.542-23.666-18.516-36.429-28.416v5.229c0 59.884 0 119.762 0.012 179.638 0 11.097-2.902 21.271-12.288 29.41-5.039 4.373-11.089 7.184-18.274 7.208-12.988 0.063-25.989 0.15-38.983 0.15-11.191 0-22.385-0.064-33.571-0.271-13.862-0.253-26.139-11.104-26.764-23.09-0.563-10.842-0.343-21.711-0.362-32.571-0.049-21.987-0.01-43.969-0.021-65.959 0-6.337-0.96-7.157-8.196-7.157-10.383-0.004-20.762-0.008-31.142-0.008-10.378 0-20.755 0.004-31.134 0.008-6.562 0-7.56 0.83-7.56 6.496-0.019 31.297-0.041 62.592 0.01 93.887 0.02 9.279-3.043 17.295-11.784 23.178-5.11 3.431-10.875 5.402-17.358 5.421-14.015 0.03-28.03 0.144-42.046 0.144-9.279 0-18.558-0.049-27.838-0.202-18.445-0.316-31.227-12.413-31.358-28.888-0.12-14.482-0.029-28.964-0.029-43.445V428.3v-4.977c-2.69 2.041-4.677 3.51-6.621 5.019-9.797 7.586-19.566 15.208-29.374 22.776-4.325 3.334-8.267 5.002-11.859 5.002-4.617 0-8.663-2.753-12.223-8.268v-5.431c2.47-2.688 4.567-5.744 7.47-8.005 69.724-54.114 139.538-108.14 209.32-162.203 4.59-3.553 8.254-5.341 11.926-5.342 3.617 0 7.239 1.739 11.765 5.239 70.919 54.895 141.823 109.795 212.665 164.773z m-80.034 171.684c0.132-66.862 0.08-133.713 0.148-200.571 0.01-2.547-0.888-4.278-3.094-5.98-33.003-25.454-65.925-50.989-98.875-76.507a153948.54 153948.54 0 0 0-42.376-32.796c-0.696 0.428-1.222 0.68-1.664 1.021-46.539 36.01-93.101 72.002-139.548 108.098-1.312 1.021-2.176 3.09-2.176 4.661-0.07 43.566-0.093 87.129-0.095 130.691-0.001 26.14 0.005 52.275 0.015 78.416 0 6.461 2.188 8.318 9.625 8.327a63734.79 63734.79 0 0 0 61.821 0c6.865 0 7.964-0.978 7.964-7.036 0.011-31.163 0-62.327 0.011-93.492 0.009-17.931 12.428-28.745 33.143-28.782 4.894-0.009 9.787-0.019 14.678-0.024 4.618-0.005 9.241-0.011 13.86-0.011 6.72 0 12.105 0.007 17.492 0.019 5.558 0.011 11.116 0.026 16.676 0.053 3.549 0.018 7.206 0.263 10.614 1.057 14.323 3.352 22.521 13.223 22.54 26.928 0.021 15.779 0.021 31.556 0.021 47.333-0.002 11.833-0.005 23.665-0.005 35.496l0.003 11.833c0 5.301 1.249 6.445 7.247 6.453 3.82 0.009 7.645 0.01 11.465 0.01l11.468-0.001c3.427-0.003 6.85-0.005 10.272-0.005 4.925 0 9.12 0.003 13.319 0.013 5.245 0.009 10.49 0.026 15.74 0.055 4.063-0.064 6.572-1.41 7.509-4.313 1.161-3.553 2.202-7.289 2.202-10.946" fill="#88C45E" /><path d="M511.658 292.715c14.15 10.946 28.263 21.868 42.376 32.796 32.952 25.518 65.872 51.052 98.875 76.506 2.207 1.702 3.104 3.432 3.096 5.979-0.071 66.858-0.021 133.711-0.149 200.571 0 3.655-1.039 7.393-2.199 10.945-0.936 2.903-3.445 4.249-7.131 4.311a5871.249 5871.249 0 0 0-28.708-0.063l-11.001 0.002-11.467 0.003c-3.822 0-7.646-0.003-11.466-0.011-5.996-0.01-7.247-1.152-7.247-6.452-0.002-3.941-0.002-7.889-0.002-11.833-0.001-11.831 0.002-23.664 0.003-35.497 0.002-15.776-0.001-31.552-0.022-47.331-0.02-13.706-8.212-23.58-22.538-26.929-3.408-0.796-7.066-1.039-10.614-1.057a7133.307 7133.307 0 0 0-32.832-0.071c-5.957 0-10.576 0.002-15.196 0.009-4.893 0.007-9.784 0.014-14.678 0.025-20.714 0.036-33.133 10.851-33.144 28.781-0.011 31.165 0 62.328-0.011 93.492 0 6.061-1.099 7.037-7.964 7.037a79588.108 79588.108 0 0 1-61.819 0c-7.439-0.01-9.628-1.869-9.628-8.328-0.008-26.141-0.015-52.277-0.013-78.416a81337 81337 0 0 1 0.095-130.692c0-1.571 0.866-3.639 2.177-4.661 46.448-36.098 93.008-72.089 139.547-108.099 0.44-0.337 0.964-0.588 1.66-1.017z" fill="#E5EEB9" /><path d="M551.245 620.558v-16.8c0 6.251 0.064 12.5 0.39 18.741 0.625 11.988 12.9 22.838 26.764 23.09 11.188 0.207 22.38 0.271 33.573 0.271 12.992 0 25.991-0.089 38.981-0.15 7.187-0.025 13.234-2.835 18.273-7.208 9.387-8.139 12.289-18.313 12.289-29.41v16.8c0 11.097-2.902 21.271-12.289 29.411-5.039 4.372-11.088 7.184-18.273 7.207-12.988 0.063-25.989 0.15-38.981 0.15-11.193 0-22.387-0.063-33.573-0.271-13.862-0.253-26.139-11.104-26.764-23.089-0.325-6.241-0.39-12.491-0.39-18.742z" fill="#5E934D" /><path d="M681.517 609.09v16.8c0 1.172-0.032 2.331-0.103 3.479v-16.8c0.069-1.148 0.103-2.308 0.103-3.479M681.414 612.571v16.8c-0.48 8.019-2.739 15.475-8.203 21.919v-16.801c5.464-6.443 7.723-13.901 8.203-21.918M673.211 634.489v16.801a36.97 36.97 0 0 1-3.982 4.011 33.05 33.05 0 0 1-3.864 2.898v-16.8a33.05 33.05 0 0 0 3.864-2.898 36.887 36.887 0 0 0 3.982-4.012M665.363 641.4v16.801a27.922 27.922 0 0 1-5.424 2.708v-16.8a27.926 27.926 0 0 0 5.424-2.709M659.939 644.107v16.801a25.856 25.856 0 0 1-5.452 1.357v-16.8c1.905-0.259 3.72-0.72 5.452-1.358" fill="#5E934D" /><path d="M654.488 645.467v16.8a26.845 26.845 0 0 1-3.534 0.243c-12.988 0.063-25.989 0.15-38.982 0.15-11.192 0-22.385-0.063-33.572-0.271-13.861-0.253-26.139-11.104-26.764-23.089-0.323-6.241-0.39-12.491-0.39-18.742v-16.8c0 6.251 0.065 12.5 0.39 18.741 0.625 11.988 12.901 22.838 26.764 23.09 11.188 0.207 22.379 0.271 33.572 0.271 12.993 0 25.993-0.089 38.982-0.15a26.857 26.857 0 0 0 3.534-0.243" fill="#5E934D" /><path d="M342.785 616.265v-16.8c0 5.792 0.014 11.583 0.063 17.376 0.131 16.476 12.913 28.571 31.359 28.887 9.281 0.155 18.558 0.204 27.837 0.204 14.015 0 28.031-0.111 42.048-0.144 6.482-0.021 12.246-1.992 17.356-5.421 8.739-5.883 11.804-13.898 11.784-23.178v16.8c0.019 9.278-3.043 17.295-11.784 23.178-5.109 3.429-10.875 5.402-17.356 5.421-14.017 0.03-28.033 0.145-42.048 0.145-9.279 0-18.557-0.05-27.837-0.203-18.446-0.316-31.229-12.413-31.359-28.889-0.05-5.791-0.063-11.584-0.063-17.376z" fill="#5E934D" /><path d="M473.232 617.192v16.8c0.001 0.815-0.021 1.623-0.067 2.421v-16.8c0.048-0.799 0.068-1.605 0.067-2.421M473.165 619.612v16.8c-0.35 5.836-2.08 11.116-5.882 15.604v-16.8c3.802-4.487 5.532-9.768 5.882-15.604M467.283 635.219v16.8c-1.573 1.857-3.501 3.58-5.835 5.151-0.225 0.149-0.448 0.298-0.674 0.44v-16.8c0.226-0.144 0.45-0.292 0.674-0.439 2.333-1.573 4.262-3.295 5.835-5.152M460.774 640.811v16.801a32.412 32.412 0 0 1-6.266 3.127v-16.802a32.266 32.266 0 0 0 6.266-3.126" fill="#5E934D" /><path d="M454.51 643.937v16.802a29.914 29.914 0 0 1-6.296 1.568v-16.8c2.186-0.3 4.285-0.829 6.296-1.57M448.214 645.507v16.8a31.097 31.097 0 0 1-4.122 0.283c-14.017 0.029-28.033 0.145-42.048 0.145-9.279 0-18.557-0.051-27.837-0.204-18.446-0.315-31.229-12.413-31.359-28.887-0.049-5.794-0.063-11.586-0.063-17.377v-16.8c0 5.791 0.014 11.582 0.063 17.377 0.131 16.474 12.913 28.569 31.359 28.887 9.281 0.153 18.558 0.202 27.837 0.202 14.015 0 28.031-0.11 42.048-0.144 1.408-0.004 2.781-0.1 4.122-0.282" fill="#5E934D" /></svg>